<?xml version="1.0" encoding="utf-8"?>
<svg xmlns="http://www.w3.org/2000/svg" xml:space="preserve" viewBox="0 0 1920 1080">
  <style>
    .st0{fill:#333}.st2{fill:#fff}.st3{fill:#4d4d4d}.st4{fill:#f2f2f2}.st5{fill:#f15a24}.st6{fill:#f7931e}.st7{fill:#fbb03b}.st9{fill:#703b21}.st10{fill:#f8c09d}.st11{fill:#ef937e}.st13{fill:#30333a}.st14{fill:#1c1c28}.st16{fill:#1a1a1a}.st17{fill:#443833}
  </style>
  <g id="Presentation">
    <path d="M1157.6 865h-.8c-4.6 0-8.3-3.7-8.3-8.3V159c0-4.6 3.7-8.3 8.3-8.3h.8c4.6 0 8.3 3.7 8.3 8.3v697.7c0 4.6-3.7 8.3-8.3 8.3z" class="st0"/>
    <path d="M1153.1 848.4c-3.9 1.8-5.7 6.4-3.9 10.3l78.7 86.8c1.8 3.9 6.4 5.7 10.3 3.9 3.9-1.8 5.7-6.4 3.9-10.3l-78.7-86.8c-1.8-3.9-6.4-5.6-10.3-3.9z" class="st0"/>
    <path d="M1163.3 847.2c-3.5-2.5-8.3-1.7-10.9 1.7l-35.9 111.6c-2.5 3.5-1.7 8.3 1.7 10.9 3.5 2.5 8.3 1.7 10.9-1.7l35.9-111.6c2.6-3.5 1.8-8.4-1.7-10.9z" class="st0"/>
    <path d="M1161.3 848.4c3.9 1.8 5.7 6.4 3.9 10.3l-78.7 86.8c-1.8 3.9-6.4 5.7-10.3 3.9-3.9-1.8-5.7-6.4-3.9-10.3l78.7-86.8c1.8-3.9 6.4-5.6 10.3-3.9z" class="st0"/>
    <path fill="gray" d="M816.5 200.2h681.8v444.2H816.5z"/>
    <path d="M832 208.6h650.4v427.6H832z" class="st2"/>
    <path d="M1505.7 652.8h-697c-4.4 0-8-3.6-8-8v-.7c0-4.4 3.6-8 8-8h697c4.4 0 8 3.6 8 8v.7c-.1 4.4-3.6 8-8 8z" class="st3"/>
    <path d="M832 208.6h650.4v29.8H832z" class="st4"/>
    <circle cx="1145.5" cy="408.3" r="156.1" class="st5"/>
    <path d="M1145.5 408.3h156.1c0 85.7-70.5 156.1-156.1 156.1s-156.1-70.5-156.1-156.1 70.5-156.1 156.1-156.1c42.2 0 82.6 17.1 112 47.4l-112 108.7z" class="st6"/>
    <path d="m1145.5 408.3 61 143.7c-19.3 8.2-40 12.4-61 12.4-85.7 0-156.1-70.5-156.1-156.1s70.5-156.1 156.1-156.1c42.2 0 82.6 17.1 112 47.4l-112 108.7z" class="st7"/>
    <path fill="#245f7f" d="m1145.5 408.3-113.3-107.4c29.5-31.1 70.5-48.7 113.3-48.7 42.2 0 82.6 17.1 112 47.4l-112 108.7zm189.7 35h30v19.4h-30z"/>
    <path d="M1335.2 477.2h30v19.4h-30z" class="st7"/>
    <path d="M1335.2 511.1h30v19.4h-30z" class="st6"/>
    <path d="M1335.2 545h30v19.4h-30z" class="st5"/>
    <path d="M1377.7 443.3h71.2v19.4h-71.2zm0 33.9h71.2v19.4h-71.2zm0 33.9h71.2v19.4h-71.2zm0 33.9h71.2v19.4h-71.2z" class="st4"/>
    <path d="M1505.7 208.2h-697c-4.4 0-8-3.6-8-8v-.7c0-4.4 3.6-8 8-8h697c4.4 0 8 3.6 8 8v.7c-.1 4.5-3.6 8-8 8z" class="st3"/>
  </g>
  <g id="Head">
    <path d="M484 217.3c-2.9 28.6-6 48 .4 81.8 3.9 20.6 10 31 10 31h150s20.8-93.1.9-168.8l-144.6-2c-.1 0-13 20.5-16.7 58z" class="st9"/>
    <circle cx="642.1" cy="247.4" r="18.3" class="st10"/>
    <path d="M649.8 250c0-3.6-2.9-6.5-6.5-6.5-1 0-1.9.2-2.8.6 1.1-1.9 3.2-3.2 5.6-3.2 3.6 0 6.5 2.9 6.5 6.5 0 2.6-1.5 4.8-3.7 5.9.6-1 .9-2.1.9-3.3z" class="st11"/>
    <path d="M597.8 336.7c0 13.4-10.9 24.5-24.3 24.5h-.2c-13.4 0-24.5-11.1-24.5-24.5v-24.6h49v24.6z" class="st10"/>
    <path fill="#f6ae8d" d="M548.8 331.4c8.4 4.3 16.6 8.2 23.9 8.2 7.6 0 16.4-1.4 25.1-5.8v-16h-49v13.6z"/>
    <path d="M575.3 329.3c-28.8 0-66-41.2-66-69.1v-74.8h139.4v74.8c0 29.2-25.2 69.1-73.4 69.1z" class="st10"/>
    <path d="M517.8 230.3h-12.4v-17.4l13.2-2z" class="st9"/>
    <path d="M616.2 186.2s-24.5 22.4-63.8 26c-28 2.6-43.7 0-43.7 0s-31.2-18.4-8.1-52.8c35.4-52.8 100.7-36.1 115.6-23.1 0 0 12.4-8 24.9 14.5 14.9 26.7 8 66.5 8 66.5s-4.7-1.4-15.6-9c-11.5-8.1-17.3-22.1-17.3-22.1z" class="st9"/>
    <circle cx="506.6" cy="247.4" r="18.3" class="st10"/>
    <path d="M502.9 250c0-3.6 2.9-6.5 6.5-6.5 1 0 1.9.2 2.8.6-1.1-1.9-3.2-3.2-5.6-3.2-3.6 0-6.5 2.9-6.5 6.5 0 2.6 1.5 4.8 3.7 5.9-.6-1-.9-2.1-.9-3.3z" class="st11"/>
  </g>
  <g id="Body">
    <path d="M575.5 891.6h21l57-342h-67z" class="st10"/>
    <path d="M656.4 549.6h-164s17.8-46.2 18.5-66.9S491 372.3 491 372.3c0-17.5 10.8-31.7 24.2-31.7h103.5c13.4 0 24.2 14.2 24.2 31.7 0 0-6.2 83.6-5.1 106.3 1.1 22.7 18.6 71 18.6 71z" class="st13"/>
    <path d="M517.4 891.6h-21l47.5-342h61z" class="st10"/>
    <path d="M638 745.3H498.1s-5.9-49.8-7.1-90.3c-1.2-40.4 1.4-105.4 1.4-105.4H656s3.5 45.8-2.5 105.4c-4.7 46.6-15.5 90.3-15.5 90.3z" class="st13"/>
    <path d="M492.9 567.1s58.3 2.1 89.8 2c31.5-.2 71.8-3.2 71.8-3.2l1.5-16.2s-33.9 4.9-73.3 4.4-90.3-4.4-90.3-4.4l.5 17.4z" class="st14"/>
    <path d="m547.2 340.6 4.7 43.5h43.2l3.3-43.5z" class="st10"/>
    <path fill="#e6e6e6" d="M551.9 374.6s5.8 9.5 20.8 9.5c14.9 0 24.7-9.5 24.7-9.5l-14.6 63.8-30.9-63.8z"/>
    <path d="M553.7 431.8h-19.8c-3.7 0-6.7-3-6.7-6.7v-4.3h33.3v4.3c-.1 3.7-3.1 6.7-6.8 6.7z" class="st3"/>
    <circle cx="583.7" cy="472.3" r="4.6" class="st14"/>
    <circle cx="583.7" cy="503.3" r="4.6" class="st14"/>
    <path d="m583.9 517.7-5.8 36.5h9.3z" class="st14"/>
    <path d="m517.8 890.7 10 44.8s-1 14.9-12.6 14.9c-11.7 0-13.9-11.3-15.9-21.4-1.9-10-2.5-38.3-2.5-38.3h21z" class="st10"/>
    <path d="M492.3 901.1c.1 1.2-3.2 35.3-1.3 35.3h5.9s-3.5-31.4-2.3-35.3-2.3 0-2.3 0z" class="st16"/>
    <path d="M525.7 926.1c-3.9-2.7-5.7-2.5-11.5-1.4s-10.3 4.3-13.4 6.3-1.5-11.3-1.8-22.3c-.3-11-2.1-17.9-2.1-17.9l-.4-3.8s-5.5 2.7-4.5 10.8c1 8.1 3.2 30.5 2.9 40.2-.3 9.7 13.9 14.5 26.2 14.8 12.3.3 11.7-3.2 11.1-9.5-.8-6.2-2.6-14.5-6.5-17.2z" class="st17"/>
    <path d="m597.6 890.7 10 44.8s-1 14.9-12.6 14.9c-11.7 0-13.9-11.3-15.9-21.4-1.9-10-2.5-38.3-2.5-38.3h21z" class="st10"/>
    <path d="M572 901.1c.1 1.2-3.2 35.3-1.3 35.3h5.9s-3.5-31.4-2.3-35.3c1.2-3.8-2.3 0-2.3 0z" class="st16"/>
    <path d="M605.5 926.1c-3.9-2.7-5.7-2.5-11.5-1.4s-10.3 4.3-13.4 6.3c-3.1 1.9-1.5-11.3-1.8-22.3s-2.1-17.9-2.1-17.9l-.4-3.8s-5.5 2.7-4.5 10.8c1 8.1 3.2 30.5 2.9 40.2-.3 9.7 13.9 14.5 26.2 14.8 12.3.3 11.7-3.2 11.1-9.5-.8-6.2-2.6-14.5-6.5-17.2z" class="st17"/>
  </g>
  <g id="Left_arm">
    <path d="m528.7 346.5 1.3 1.5c6.2 7.4 5.3 18.4-2.1 24.6l-87.5 89.9c-7.4 6.2-18.4 5.3-24.6-2.1l-1.3-1.5c-6.2-7.4-5.3-18.4 2.1-24.6l87.5-89.9c7.4-6.2 18.4-5.3 24.6 2.1z" class="st13"/>
    <path d="M446.8 529.8c-21.5-26.4-33.8-70.7-33.8-70.7-3.9-12.9-1.8-19.5 6.4-25.5 8.2-6 19.8-4.2 25.8 4 0 0 8.3 31.7 18.2 51.9 6.9 13.9 26.2 35 26.2 35l-12.1 31.7c0 .1-19-11.9-30.7-26.4z" class="st13"/>
    <path d="M489.1 526.6s3.9 2.8 7.1 0c3.1-2.8 9.8-9.8 16.1-10.2s13.4-.4 16.5 0c4 .5 2.6 7.7-5.3 7.4-7.9-.4-12.8.7-16.1 3.9 0 0 13.4-.2 19.8 2.1 8.2 2.9 4.6 10.3-.9 8.3s-16-2.9-20.4-2.8c0 0 10.8 1.9 17.1 6.4 6.2 4.5 2.3 9.9-3.7 7.1-6.8-3.2-14.2-6.7-17.3-4.7 0 0 8.1 5.8 12.1 8.5 3.9 2.6.7 8.6-5 4.7-5.4-3.7-7.6-4.7-10.6-6.9-2.5-1.8-3.9 4.8-12.3 6.9-4.6 1.2-7.9-2.9-7.9-2.9l10.8-27.8z" class="st10"/>
  </g>
  <g id="Right_arm">
    <path d="M721 466.1c7 7.4 18.7 7.7 26.1.7l67.6-64-25.4-26.8-67.6 64c-7.4 7-7.7 18.7-.7 26.1z" class="st13"/>
    <path d="M611.8 346.6c-6.7 7.6-6 19.3 1.6 26l102.9 91c7.6 6.7 19.3 6 26-1.6 6.7-7.6 6-19.3-1.6-26l-102.9-91c-7.6-6.8-19.2-6.1-26 1.6z" class="st13"/>
    <path d="M789.7 387.5c2.9-.9 4.6-4 3.7-7l-7.6-24.4c-.9-2.9-4-4.6-7-3.7-2.9.9-4.6 4-3.7 7l7.6 24.4c1 2.9 4.1 4.6 7 3.7z" class="st10"/>
    <path d="m814.3 407.2 6.6-6.2c2.8-2.7 3-7.1.3-9.9l-20.9-22.3c-2.7-2.8-7.1-3-9.9-.3l-6.6 6.2c-3 2.8-3.2 7.6-.4 10.6l20.2 21.7c2.9 2.9 7.7 3.1 10.7.2z" class="st10"/>
    <path d="M787.1 379.2c2.1 2.3 5.6 2.4 7.9.3l37.9-35.2c2.3-2.1 2.4-5.6.3-7.9-2.1-2.3-5.6-2.4-7.9-.3l-37.9 35.2c-2.3 2.1-2.4 5.6-.3 7.9z" class="st10"/>
    <path d="M798.4 383.9c2.1 2.3 5.6 2.4 7.9.3l18.7-17.5c2.2-2.1 2.4-5.6.3-7.9-2.1-2.3-5.6-2.4-7.9-.3L798.7 376c-2.3 2.1-2.4 5.7-.3 7.9z" class="st10"/>
    <path d="M803.9 394c2.1 2.3 5.6 2.4 7.9.3l18.7-17.5c2.3-2.1 2.4-5.6.3-7.9-2.1-2.3-5.6-2.4-7.9-.3l-18.7 17.5c-2.2 2.1-2.4 5.6-.3 7.9z" class="st10"/>
    <path d="M808.6 404.9c2.1 2.3 5.6 2.4 7.9.3l18.7-17.5c2.3-2.1 2.4-5.6.3-7.9-2.1-2.2-5.6-2.4-7.9-.3L808.8 397c-2.2 2.1-2.3 5.7-.2 7.9z" class="st10"/>
  </g>
  <g id="Collar">
    <path d="m598.4 340.6-15.6 97.7 34.5-63.2-8-7.8 10.2-10.6z" class="st2"/>
    <path d="m547.2 340.6 35.6 97.7-54.5-63.2 8-7.8-10.2-10.6z" class="st2"/>
  </g>
  <path id="Mouth" fill="#e26c60" d="M581.7 284.6c0 9.3 7.5 16.8 16.8 16.8s16.8-7.5 16.8-16.8"/>
  <path id="Nose" d="M594.4 256.1v13.8c0 .6.8 1.1 1.4 1.1h8.2c2.2 0 3.4-2.6 2-4.3l-9.5-11.4c-.6-.8-2.1-.3-2.1.8z" class="st11"/>
  <g id="Eyes">
    <ellipse cx="568.5" cy="237.9" class="st0" rx="4.8" ry="8.5"/>
    <ellipse cx="629.6" cy="237.9" class="st0" rx="4.8" ry="8.5"/>
  </g>
</svg>