<?xml version="1.0" encoding="utf-8"?>
<!-- Generator: Adobe Illustrator 16.0.3, SVG Export Plug-In . SVG Version: 6.00 Build 0)  -->
<!DOCTYPE svg PUBLIC "-//W3C//DTD SVG 1.1//EN" "http://www.w3.org/Graphics/SVG/1.1/DTD/svg11.dtd">
<svg version="1.1" id="UniBasGE_x5F_08_x5F_FakMed_x5F_Logo_x5F_DE_x5F_Schwarz_x5F_RGB"
	 xmlns="http://www.w3.org/2000/svg" xmlns:xlink="http://www.w3.org/1999/xlink" x="0px" y="0px" width="83px" height="83px"
	 viewBox="0 0 83 83" enable-background="new 0 0 83 83" xml:space="preserve">
<g>
	<g>
		<path fill="#1D1D1B" d="M18.3,55.39l-0.415-0.163c0.753-1.912,0.485-5.2-0.562-6.9l-0.147-0.238l6.667-2.218l0.08,0.187
			c0.856,2.012,0.96,4.866-0.25,5.905l-0.29-0.337c0.982-0.844,0.914-3.388,0.207-5.206l-1.283,0.414l-4.466,1.501
			C18.833,50.189,19.061,53.456,18.3,55.39z"/>
		<path fill="#1D1D1B" d="M24.301,59.108l-0.158-0.231c-1.118-1.652-4.007-3.247-6.062-3.347l0.021-0.444
			c2.077,0.101,4.964,1.651,6.246,3.317l4.106-4.458c-1.367-1.392-3.659-2.499-4.832-1.948l-0.189-0.404
			c1.448-0.67,4.006,0.591,5.488,2.198l0.138,0.149l-1.18,1.303L24.301,59.108z"/>
		<path fill="#1D1D1B" d="M24.708,61.421l-6.809-5.988l-2.663-8.665l6.868-1.609l0.351,1.41l-0.432,0.107l-0.246-0.984l-5.978,1.4
			l2.418,7.869l2.472-1.597c2.906-1.879,2.906-1.877,3.026-1.691l-0.067,0.308c-0.03,0.019-4.131,2.669-5.189,3.354l6.184,5.438
			l3.731-4.877l-0.797-0.628l0.276-0.349l1.14,0.899L24.708,61.421z"/>
	</g>
	<path fill="#1D1D1B" d="M44.13,69.126h-4.356l0.585-3.039c0.057-0.294,0.015-0.527-0.123-0.694
		c-0.126-0.154-0.332-0.245-0.55-0.245c-0.209,0-0.606,0.141-0.613,0.674c-0.002,0.153,0.104,0.584,0.307,0.824l0.176,0.209
		l-0.228,0.154c-0.21,0.143-0.459,0.219-0.72,0.219c-0.91,0-1.739-0.843-1.739-1.768c0-1.893,1.604-2.883,3.188-2.883
		c1.839,0,3.123,1.162,3.522,3.188c0.348,1.763,0.348,1.763,0.514,3.083L44.13,69.126z M40.374,68.631h3.194
		c-0.131-1.033-0.156-1.158-0.474-2.77c-0.354-1.798-1.433-2.789-3.037-2.789c-1.297,0-2.692,0.748-2.692,2.389
		c0,0.8,0.878,1.401,1.462,1.244c-0.167-0.313-0.251-0.684-0.249-0.889c0.009-0.755,0.578-1.163,1.107-1.163
		c0.364,0,0.712,0.158,0.931,0.424c0.163,0.197,0.335,0.548,0.229,1.103L40.374,68.631z"/>
	<path fill="#1D1D1B" d="M38.123,80.145l-0.455-0.175l1.855-9.441h4.935l1.734,9.429l-0.459,0.167l-2.241-3.96L42.213,79.9
		l-0.468-0.001l-1.248-3.68L38.123,80.145z M40.624,75.052l1.356,4l1.399-4.093l2.059,3.638l-1.393-7.575h-4.115l-1.506,7.667
		L40.624,75.052z"/>
	<path fill="#1D1D1B" d="M39.449,71.023c-0.662,0-1.198-0.536-1.198-1.195c0-0.66,0.537-1.197,1.196-1.197h0.563v0.495h-0.563
		c-0.386,0-0.701,0.315-0.701,0.702c0,0.386,0.315,0.701,0.701,0.701l0.38-0.003l0.004,0.495L39.449,71.023z"/>
	<path fill="#1D1D1B" d="M44.479,71.023h-0.407v-0.495h0.407c0.387,0,0.702-0.314,0.702-0.701c0-0.387-0.315-0.702-0.702-0.702
		h-0.577v-0.495h0.577c0.66,0,1.197,0.537,1.197,1.197C45.675,70.488,45.139,71.023,44.479,71.023z"/>
	<path fill="#1D1D1B" d="M41.532,58.908h-4.254l0.063-0.298c0.69-3.256-0.186-5.324-1.499-7.89l0.44-0.226
		c1.277,2.496,2.208,4.678,1.602,7.92h2.935c-1.529-4.225-2.472-9.689-2.481-9.744l0.488-0.084c0.01,0.058,0.995,5.77,2.581,9.988
		L41.532,58.908z"/>
	<path fill="#1D1D1B" d="M50.015,60.235l0.147-0.346c2.53-5.927,3.113-9.15,2.4-13.272l0.488-0.086
		c0.717,4.151,0.163,7.398-2.286,13.208l2.824-0.005c-0.062-3.083,1.028-6.396,2.943-8.91l0.394,0.299
		c-1.901,2.495-2.96,5.803-2.835,8.848l0.011,0.257L50.015,60.235z"/>
	<path fill="#1D1D1B" d="M61.253,61.549h-3.944l0.061-0.296c1.059-5.162,1.347-9.228-4.593-14.444l-4.672,2.655l-2.284,2.127
		l-0.703-1.863l-7.771-0.962c-2.034,3.179-2.586,7.891-2.226,11.188l0.03,0.273h-3.879l0.104-0.323
		c0.566-1.752,1.301-6.224,1.179-9.3l-1.993-2.874l-0.935-3.591l-2.953-3.79l0.39-0.305l3.029,3.92l0.937,3.598l2.013,2.875
		l0.003,0.072c0.132,2.96-0.537,7.241-1.101,9.222h2.656c-0.295-3.184,0.163-7.96,2.416-11.367l0.084-0.128l8.374,1.036l0.548,1.456
		l1.79-1.662l5.022-2.862l0.133,0.115c6.146,5.331,5.96,9.671,4.946,14.734h2.691c-1.056-4.157-0.439-8.799-0.341-9.466
		l-1.963-3.886l0.032-0.097c1.144-3.549,0.672-9.049,0.667-9.104c-0.012-0.044-0.152-0.72,0.169-1.146
		c0.146-0.196,0.364-0.306,0.633-0.323c0.575-0.033,1.103,0.165,1.51,0.581c0.958,0.978,1.305,3.129,1.033,6.394
		c-0.323,3.876-0.149,5.927,2.833,8.511c0.022-2.245-0.251-4.366-1.887-5.274l-0.113-0.063l-0.013-0.128
		c-0.154-1.505-0.035-2.446,0.091-3.442c0.101-0.799,0.206-1.624,0.166-2.797c-0.104-3.032-2.055-4.726-2.457-5.043l-3.424,0.39
		l-11.965-0.813l0.034-0.495l11.92,0.815l3.572-0.411l0.077,0.054c0.106,0.075,2.615,1.879,2.738,5.485
		c0.041,1.213-0.066,2.058-0.169,2.875c-0.12,0.94-0.231,1.83-0.102,3.205c1.886,1.139,2.087,3.636,2.018,6.171l-0.404,0.185
		c-3.528-2.881-3.752-5.141-3.408-9.268c0.324-3.879-0.307-5.407-0.893-6.005c-0.309-0.314-0.687-0.472-1.126-0.433
		c-0.163,0.009-0.23,0.075-0.267,0.125c-0.156,0.207-0.107,0.638-0.077,0.773c0.025,0.259,0.483,5.59-0.653,9.234l1.943,3.849
		l-0.013,0.079c-0.008,0.052-0.826,5.213,0.401,9.648L61.253,61.549z"/>
	
		<rect x="31.885" y="58.114" transform="matrix(0.952 0.3061 -0.3061 0.952 19.4671 -7.4216)" fill="#1D1D1B" width="3.026" height="0.495"/>
	
		<rect x="37.782" y="56.829" transform="matrix(0.9695 0.245 -0.245 0.9695 15.18 -7.8838)" fill="#1D1D1B" width="2.996" height="0.495"/>
	
		<rect x="51.171" y="58.178" transform="matrix(0.9716 0.2366 -0.2366 0.9716 15.316 -10.7762)" fill="#1D1D1B" width="2.772" height="0.496"/>
	
		<rect x="58.04" y="59.53" transform="matrix(0.9638 0.2665 -0.2665 0.9638 18.08 -13.6637)" fill="#1D1D1B" width="2.678" height="0.495"/>
	<g>
		<path fill="#1D1D1B" d="M22.724,33.748l-0.238-0.067c-1.326-0.37-2.081-1.608-2.124-3.486l-0.008-0.322l0.313,0.076
			c1.14,0.274,2.43,0.955,2.634,2.043l0.045,0.243l-0.487,0.092l-0.046-0.244c-0.142-0.761-1.073-1.294-1.94-1.563
			c0.076,0.963,0.426,2.318,1.745,2.685l0.238,0.066L22.724,33.748z"/>
		<path fill="#1D1D1B" d="M23.639,31.571l-0.486-0.096c0.024-0.122,0.616-3.026,2.535-4.101c0.85-0.477,1.823-0.517,2.891-0.121
			l-0.08,0.479c-0.901,0.024-1.547,0.295-1.917,0.806c-0.682,0.943-0.251,2.42-0.247,2.436l-0.474,0.142
			c-0.021-0.069-0.507-1.724,0.317-2.865c0.248-0.344,0.585-0.602,1.008-0.771c-0.45,0-0.871,0.108-1.257,0.325
			C24.208,28.77,23.644,31.543,23.639,31.571z"/>
		<polygon fill="#1D1D1B" points="22.713,37.153 22.432,36.746 24.243,35.494 23.991,33.753 24.481,33.682 24.777,35.727 		"/>
		<path fill="#1D1D1B" d="M20.436,42.074l-0.175-0.174c-0.792-0.791-1.405-1.493-1.512-2.719l-0.012-0.136l2.116-1.607l2.301-6.063
			l2.978-0.587l0.074,0.035c0.07,0.035,1.743,0.846,3.002,2.138l0.172,0.177l-0.354,0.344l-0.173-0.178
			c-1.055-1.083-2.458-1.83-2.789-1.999l-2.544,0.5l-2.146,5.653c0.378,0.179,1.169,0.609,1.944,1.385l0.174,0.175l-0.35,0.349
			l-0.175-0.174c-0.771-0.772-1.573-1.181-1.874-1.317l-1.838,1.396c0.11,0.897,0.518,1.442,1.354,2.278l0.175,0.174L20.436,42.074z
			"/>
		<path fill="#1D1D1B" d="M20.53,40.181l-0.105-0.315c-0.175-0.517-0.167-0.685,0.306-1.159l0.175-0.174l0.351,0.349l-0.175,0.175
			c-0.304,0.303-0.304,0.303-0.188,0.65L21,40.023L20.53,40.181z"/>
		<path fill="#1D1D1B" d="M35.935,39.387c-0.797,0-1.677-0.153-2.607-0.465l0.157-0.47c2.178,0.729,4.031,0.548,5.081-0.5
			c2.106-2.106,0.6-7.04-3.357-10.999c-1.936-1.936-4.161-3.346-6.265-3.968c-2.052-0.608-3.734-0.392-4.734,0.611
			c-1.057,1.057-1.234,2.925-0.484,5.127l-0.469,0.159c-0.812-2.387-0.592-4.441,0.604-5.637c1.134-1.135,2.989-1.397,5.224-0.735
			c2.183,0.645,4.482,2.099,6.475,4.093c4.15,4.151,5.657,9.399,3.357,11.699C38.195,39.021,37.163,39.387,35.935,39.387z"/>
		<path fill="#1D1D1B" d="M32.29,41.807l-0.322-0.008c-1.88-0.045-3.118-0.8-3.487-2.125l-0.067-0.238l0.477-0.132l0.066,0.238
			c0.367,1.319,1.722,1.669,2.686,1.746c-0.27-0.869-0.804-1.799-1.563-1.941l-0.244-0.044l0.09-0.487l0.244,0.046
			c1.086,0.202,1.767,1.493,2.043,2.633L32.29,41.807z"/>
		<path fill="#1D1D1B" d="M30.686,39.007l-0.096-0.485c0.028-0.006,2.804-0.574,3.766-2.292c0.216-0.387,0.324-0.807,0.324-1.257
			c-0.169,0.422-0.427,0.76-0.772,1.01c-1.142,0.821-2.795,0.336-2.865,0.317l0.143-0.474c0.015,0.002,1.493,0.434,2.435-0.247
			c0.511-0.371,0.782-1.015,0.807-1.918l0.479-0.079c0.396,1.069,0.355,2.042-0.121,2.892
			C33.712,38.392,30.809,38.984,30.686,39.007z"/>
		<polygon fill="#1D1D1B" points="25.415,39.729 25.008,39.449 26.434,37.383 28.48,37.678 28.409,38.169 26.667,37.917 		"/>
		<path fill="#1D1D1B" d="M23.116,43.423l-0.136-0.012c-1.225-0.105-1.928-0.721-2.72-1.512l-0.175-0.175l0.35-0.349l0.175,0.175
			c0.836,0.836,1.381,1.246,2.278,1.354l1.396-1.836c-0.137-0.3-0.545-1.103-1.316-1.874l-0.176-0.174l0.35-0.35l0.175,0.175
			c0.775,0.774,1.205,1.565,1.383,1.943l5.653-2.145l0.501-2.544c-0.169-0.332-0.919-1.737-1.999-2.79l-0.177-0.171l0.346-0.354
			l0.178,0.172c1.29,1.257,2.101,2.93,2.135,3.001l0.036,0.073l-0.586,2.979l-6.064,2.3L23.116,43.423z"/>
		<path fill="#1D1D1B" d="M22.761,41.841c-0.129,0-0.274-0.04-0.466-0.106L21.98,41.63l0.157-0.47l0.316,0.106
			c0.346,0.12,0.347,0.119,0.651-0.187l0.175-0.174l0.35,0.349l-0.175,0.176C23.157,41.727,22.979,41.841,22.761,41.841z"/>
	</g>
	<g>
		<path fill="#1D1D1B" d="M41.753,37.919l-0.283-0.405l8.958-6.238l0.136,0.08c1.163,0.671,4.604,1.255,6.153,0.889l0.108-0.026
			l0.09,0.064c0.748,0.52,4.281,1.11,5.311,0.464l0.069-0.043l0.081,0.005c1.436,0.116,2.968-0.576,3.623-0.973
			c-4.181-5.105-14.484-11.362-20.826-13.486c-2.778,3.1-5.359,9.397-6.346,12.683l-0.474-0.142
			c1.012-3.371,3.688-9.878,6.563-12.993l0.108-0.117l0.151,0.049c6.479,2.123,17.23,8.66,21.38,13.909l0.157,0.199l-0.204,0.153
			c-0.487,0.364-2.34,1.32-4.093,1.218c-1.236,0.667-4.691,0.108-5.687-0.459c-1.651,0.331-4.933-0.212-6.272-0.889L41.753,37.919z"
			/>
		
			<rect x="44.733" y="28.215" transform="matrix(0.5428 0.8399 -0.8399 0.5428 46.0478 -27.6626)" fill="#1D1D1B" width="7.397" height="0.496"/>
		
			<rect x="50.317" y="29.539" transform="matrix(0.7022 0.712 -0.712 0.7022 37.3188 -29.6542)" fill="#1D1D1B" width="7.585" height="0.494"/>
		
			<rect x="55.575" y="30.27" transform="matrix(0.7616 0.6481 -0.6481 0.7616 33.9601 -31.274)" fill="#1D1D1B" width="7.817" height="0.496"/>
	</g>
	<path fill="#1D1D1B" d="M36.32,27.376h-0.496c0-2.161,0.357-5.624,1.018-7.79l0.058-0.187l0.194,0.012
		c1.875,0.109,6.057,1.061,6.234,1.101l-0.11,0.483c-0.042-0.01-4.034-0.917-5.958-1.076C36.648,22.047,36.32,25.315,36.32,27.376z"
		/>
	<path fill="#1D1D1B" d="M41.5,83C18.617,83,0,64.384,0,41.5C0,18.617,18.617,0,41.5,0C64.383,0,83,18.617,83,41.5
		C83,64.384,64.383,83,41.5,83z M41.5,0.495C18.89,0.495,0.495,18.89,0.495,41.5c0,22.611,18.395,41.005,41.005,41.005
		S82.505,64.111,82.505,41.5C82.505,18.89,64.11,0.495,41.5,0.495z"/>
	<g>
		<path fill="#1D1D1B" d="M31.934,71.3l-1.747,5.429l1.462-0.639l-0.227,0.705l-1.456,0.621l-0.616-0.198l1.967-6.115L31.934,71.3z"
			/>
		<path fill="#1D1D1B" d="M26.61,70.207l0.437-0.922l0.576,0.272l-0.436,0.924l2.307,1.091l-0.251,0.53l-4.148,3.367l-0.626-0.295
			l4.149-3.368l-1.682-0.796l-0.78,1.648l-0.577-0.272l0.779-1.648l-0.706-0.334l0.25-0.531L26.61,70.207z"/>
		<path fill="#1D1D1B" d="M23.854,67.277c0.897,0.615,1.05,1.615,0.423,2.531c-0.26,0.379-0.622,0.668-1.15,0.963l-3.098,1.738
			l-0.549-0.375l2.811-1.574c-0.214-0.038-0.425-0.127-0.633-0.269c-0.823-0.565-0.938-1.573-0.341-2.445
			C21.934,66.946,22.957,66.662,23.854,67.277z M22.065,69.902c0.564,0.387,1.212,0.218,1.661-0.438
			c0.444-0.646,0.372-1.321-0.192-1.706c-0.564-0.387-1.225-0.216-1.668,0.431C21.463,68.778,21.458,69.485,22.065,69.902z"/>
		<path fill="#1D1D1B" d="M20.151,64.301c0.729,0.682,0.798,1.711,0.071,2.489l-2.048,2.186c-0.728,0.777-1.76,0.774-2.488,0.092
			c-0.728-0.681-0.798-1.711-0.07-2.488l2.048-2.186C18.392,63.618,19.423,63.62,20.151,64.301z M16.112,66.996
			c-0.481,0.514-0.551,1.167-0.032,1.652c0.518,0.485,1.165,0.374,1.646-0.14l1.999-2.134c0.481-0.513,0.55-1.164,0.032-1.649
			c-0.518-0.486-1.164-0.375-1.646,0.139L16.112,66.996z"/>
		<path fill="#1D1D1B" d="M10.952,62.583l1.98-1.292L11.4,58.942l0.514-0.335l1.532,2.349l2.373-1.547l0.374,0.572l-5.381,3.51
			l-2.17-3.328l0.514-0.334L10.952,62.583z"/>
		<path fill="#1D1D1B" d="M12.084,52.362l-1.122,1.055l1.127,2.558l1.536-0.118l0.293,0.666l-6.828,0.438l-0.232-0.527l4.933-4.737
			L12.084,52.362z M7.871,56.292l3.591-0.267l-0.964-2.188L7.871,56.292z"/>
		<path fill="#1D1D1B" d="M11.127,48.821c0.148,0.611,0.055,1.225-0.264,1.747c-0.446,0.725-1.06,0.874-2.384,1.194
			c-1.325,0.32-1.938,0.47-2.667,0.026c-0.523-0.316-0.886-0.82-1.034-1.432C4.507,49.24,4.99,48.245,6.114,47.75l0.165,0.681
			c-0.723,0.352-1.093,1.006-0.906,1.782c0.1,0.41,0.353,0.766,0.699,0.969c0.498,0.294,0.939,0.234,2.245-0.082
			c1.307-0.316,1.726-0.464,2.035-0.954c0.215-0.339,0.277-0.77,0.178-1.181c-0.188-0.777-0.821-1.207-1.625-1.188l-0.161-0.663
			C9.969,47.03,10.858,47.711,11.127,48.821z"/>
		<path fill="#1D1D1B" d="M10.29,42.761c0.051,1.294-0.805,2.263-2.085,2.313l-4.301,0.171l-0.027-0.683l4.248-0.168
			c0.974-0.039,1.59-0.675,1.553-1.609s-0.702-1.529-1.676-1.49l-4.247,0.168L3.727,40.78l4.301-0.168
			C9.309,40.561,10.238,41.469,10.29,42.761z"/>
		<path fill="#1D1D1B" d="M10.31,38.494L3.955,37.55l0.1-0.675l5.748,0.853l0.481-3.234l0.606,0.088L10.31,38.494z"/>
		<path fill="#1D1D1B" d="M5.971,30.784l5.579,1.625l-0.191,0.656L5.78,31.439l-0.517,1.778l-0.59-0.172l1.227-4.21l0.589,0.172
			L5.971,30.784z"/>
		<path fill="#1D1D1B" d="M14.109,26.242l-1.531-0.169l-1.211,2.521l1.087,1.09l-0.315,0.657l-4.771-4.906l0.249-0.517l6.807,0.668
			L14.109,26.242z M8.385,25.594l2.536,2.555l1.036-2.155L8.385,25.594z"/>
		<path fill="#1D1D1B" d="M11.306,19.936l4.757,3.336l-0.392,0.559l-4.757-3.336l-1.063,1.515l-0.503-0.352l2.519-3.59l0.502,0.353
			L11.306,19.936z"/>
		<path fill="#1D1D1B" d="M18.136,20.686l-4.749-4.327l0.46-0.506l4.749,4.328L18.136,20.686z"/>
		<path fill="#1D1D1B" d="M21.631,17.398c-0.743,0.61-1.384,0.822-2.233,0.737l0.063-0.66c0.748,0.075,1.239-0.106,1.794-0.563
			c0.722-0.594,0.885-1.3,0.41-1.879c-0.212-0.258-0.472-0.417-0.746-0.426c-0.274-0.008-0.434,0.053-0.841,0.293l-0.65,0.383
			c-0.441,0.257-0.85,0.382-1.219,0.372c-0.434-0.018-0.811-0.222-1.137-0.621c-0.693-0.843-0.547-1.897,0.433-2.702
			c0.632-0.519,1.18-0.701,1.919-0.665l-0.06,0.622c-0.535-0.029-0.981,0.092-1.502,0.521c-0.659,0.542-0.738,1.227-0.286,1.775
			c0.201,0.245,0.43,0.383,0.692,0.391c0.262,0.006,0.599-0.108,0.89-0.276l0.61-0.361c0.522-0.312,0.832-0.403,1.189-0.394
			c0.46,0.007,0.886,0.229,1.224,0.641C22.898,15.458,22.659,16.554,21.631,17.398z"/>
		<path fill="#1D1D1B" d="M31.302,11.838l-1.888-4.501l-0.119,4.247l-0.539,0.227l-3.138-2.881l1.889,4.502l-0.63,0.264
			l-2.485-5.924l0.629-0.265l3.686,3.395l0.109-4.986l0.63-0.266l2.486,5.925L31.302,11.838z"/>
		<path fill="#1D1D1B" d="M33.832,11.104l-1.21-6.308l3.9-0.747l0.116,0.602l-3.23,0.62l0.427,2.223l2.753-0.527l0.115,0.602
			l-2.753,0.528l0.437,2.278l3.23-0.619l0.115,0.602L33.832,11.104z"/>
		<path fill="#1D1D1B" d="M43.247,9.643c-0.393,0.381-0.962,0.581-1.627,0.569l-2.192-0.037l0.104-6.423l2.192,0.036
			c0.665,0.011,1.228,0.228,1.608,0.622c0.654,0.678,0.602,1.662,0.587,2.554C43.905,7.858,43.922,8.985,43.247,9.643z M42.847,4.89
			c-0.327-0.348-0.756-0.481-1.25-0.489l-1.393-0.023L40.12,9.574l1.393,0.023c0.494,0.008,0.928-0.112,1.266-0.449
			c0.448-0.454,0.445-1.41,0.458-2.194C43.249,6.169,43.28,5.358,42.847,4.89z"/>
		<path fill="#1D1D1B" d="M45.731,10.492l0.93-6.356l0.675,0.098l-0.93,6.357L45.731,10.492z"/>
		<path fill="#1D1D1B" d="M50.403,11.551c-0.604-0.178-1.088-0.564-1.38-1.103c-0.406-0.75-0.228-1.355,0.157-2.662
			c0.385-1.307,0.564-1.913,1.313-2.322c0.536-0.294,1.154-0.356,1.758-0.178c1.103,0.326,1.723,1.242,1.588,2.462l-0.672-0.199
			c0.058-0.8-0.322-1.448-1.089-1.674c-0.406-0.119-0.84-0.078-1.188,0.119c-0.505,0.284-0.673,0.696-1.053,1.985
			c-0.38,1.289-0.462,1.726-0.192,2.238c0.186,0.355,0.528,0.626,0.933,0.746c0.768,0.227,1.456-0.107,1.841-0.812l0.655,0.193
			C52.533,11.445,51.498,11.875,50.403,11.551z"/>
		<path fill="#1D1D1B" d="M54.168,12.88l2.668-5.844l0.622,0.282l-2.668,5.845L54.168,12.88z"/>
		<path fill="#1D1D1B" d="M60.13,16.3l-0.001-6.17l-2.835,4.302l-0.57-0.375l3.536-5.365l0.54,0.356l0.01,6.155l2.826-4.286
			l0.57,0.375l-3.536,5.364L60.13,16.3z"/>
		<path fill="#1D1D1B" d="M64.691,20.409l0.646-1.399l-2.002-1.948l-1.38,0.683l-0.521-0.507l6.168-2.961l0.413,0.401l-2.801,6.239
			L64.691,20.409z M67.127,15.187l-3.229,1.591l1.713,1.668L67.127,15.187z"/>
		<path fill="#1D1D1B" d="M66.007,21.965l5.24-3.719l2.299,3.24l-0.5,0.355l-1.904-2.683l-1.847,1.312l1.624,2.286l-0.5,0.355
			l-1.624-2.286l-1.891,1.341l1.904,2.683l-0.5,0.354L66.007,21.965z"/>
		<path fill="#1D1D1B" d="M71.145,31.455l-0.831-2.348l6.058-2.142l0.803,2.271c0.371,1.049,0.025,1.994-0.988,2.351
			c-0.638,0.227-1.274,0.022-1.641-0.419c-0.009,0.651-0.367,1.235-1.09,1.492C72.359,33.045,71.522,32.521,71.145,31.455z
			 M73.923,30.405l-0.582-1.644l-2.221,0.786l0.582,1.643c0.264,0.746,0.863,1.059,1.543,0.819
			C73.926,31.768,74.187,31.151,73.923,30.405z M76.579,29.389l-0.558-1.575l-2.101,0.743l0.557,1.575
			c0.237,0.67,0.751,1.069,1.475,0.813C76.675,30.69,76.815,30.059,76.579,29.389z"/>
		<path fill="#1D1D1B" d="M72.731,38.784l1.363-0.718l-0.408-2.765l-1.512-0.294l-0.106-0.721l6.7,1.393l0.083,0.569l-6.013,3.256
			L72.731,38.784z M77.838,36.115l-3.532-0.697l0.349,2.364L77.838,36.115z"/>
		<path fill="#1D1D1B" d="M72.715,42.641c0.037-0.961,0.304-1.581,0.931-2.16l0.452,0.485c-0.553,0.51-0.743,0.997-0.771,1.715
			c-0.035,0.935,0.385,1.527,1.133,1.555c0.334,0.013,0.626-0.075,0.814-0.275c0.188-0.199,0.249-0.358,0.339-0.822l0.146-0.742
			c0.101-0.5,0.278-0.888,0.532-1.157c0.301-0.313,0.704-0.459,1.218-0.44c1.091,0.042,1.782,0.851,1.734,2.117
			c-0.032,0.818-0.259,1.349-0.776,1.877l-0.425-0.457c0.375-0.383,0.582-0.797,0.607-1.471c0.033-0.852-0.426-1.365-1.139-1.393
			c-0.315-0.011-0.571,0.069-0.75,0.259c-0.179,0.192-0.317,0.519-0.384,0.85l-0.135,0.695c-0.114,0.599-0.251,0.891-0.496,1.15
			c-0.311,0.339-0.76,0.512-1.292,0.491C73.325,44.876,72.665,43.97,72.715,42.641z"/>
		<path fill="#1D1D1B" d="M72.36,46.708l6.324,1.129l-0.121,0.673l-6.324-1.13L72.36,46.708z"/>
		<path fill="#1D1D1B" d="M71.672,49.982l6.085,2.06l-0.219,0.646l-5.504-1.862l-1.049,3.098l-0.582-0.197L71.672,49.982z"/>
		<path fill="#1D1D1B" d="M69.952,54.545l5.809,2.744l-0.292,0.618l-5.809-2.745L69.952,54.545z"/>
		<path fill="#1D1D1B" d="M68.619,57.218l5.365,3.534l-2.186,3.318l-0.512-0.338l1.81-2.747l-1.891-1.246l-1.543,2.341l-0.512-0.336
			l1.542-2.343l-1.937-1.275l-1.81,2.746l-0.512-0.337L68.619,57.218z"/>
		<path fill="#1D1D1B" d="M62.499,64.76l6.05,1.217l-3.656-3.627l0.481-0.485l4.56,4.524l-0.456,0.459l-6.037-1.205l3.644,3.615
			l-0.481,0.485l-4.561-4.524L62.499,64.76z"/>
		<path fill="#1D1D1B" d="M59.113,67.3c0.795-0.542,1.453-0.694,2.29-0.533l-0.122,0.651c-0.738-0.142-1.243-0.006-1.837,0.398
			c-0.772,0.526-1,1.216-0.578,1.834c0.188,0.275,0.432,0.459,0.705,0.492c0.272,0.032,0.437-0.014,0.864-0.217l0.683-0.323
			c0.461-0.216,0.88-0.304,1.247-0.259c0.43,0.055,0.787,0.293,1.077,0.719c0.614,0.902,0.374,1.938-0.673,2.651
			c-0.676,0.46-1.239,0.593-1.971,0.49l0.116-0.613c0.529,0.077,0.985-0.004,1.542-0.383c0.706-0.481,0.846-1.154,0.444-1.744
			c-0.178-0.262-0.394-0.42-0.654-0.451c-0.26-0.03-0.605,0.052-0.911,0.194l-0.641,0.305c-0.548,0.265-0.864,0.326-1.219,0.285
			c-0.458-0.05-0.862-0.309-1.162-0.75C57.677,69.117,58.014,68.048,59.113,67.3z"/>
		<path fill="#1D1D1B" d="M55.628,69.428l2.842,5.762l-0.613,0.302l-2.842-5.763L55.628,69.428z"/>
		<path fill="#1D1D1B" d="M51.683,71.039c0.91-0.312,1.584-0.284,2.349,0.093l-0.29,0.596c-0.674-0.333-1.197-0.335-1.877-0.103
			c-0.884,0.303-1.285,0.908-1.042,1.617c0.107,0.314,0.295,0.558,0.549,0.66c0.254,0.103,0.424,0.103,0.89,0.02l0.744-0.13
			c0.502-0.086,0.929-0.061,1.271,0.079c0.399,0.168,0.681,0.493,0.847,0.98c0.354,1.033-0.153,1.969-1.352,2.378
			c-0.774,0.265-1.351,0.244-2.03-0.05l0.273-0.56c0.49,0.214,0.952,0.256,1.589,0.038c0.808-0.276,1.12-0.889,0.89-1.563
			c-0.102-0.298-0.269-0.508-0.511-0.607c-0.243-0.098-0.598-0.109-0.93-0.052l-0.698,0.123c-0.599,0.11-0.92,0.087-1.251-0.048
			c-0.428-0.168-0.75-0.525-0.922-1.029C49.816,72.41,50.424,71.469,51.683,71.039z"/>
	</g>
</g>
</svg>
